G04 #@! TF.FileFunction,Copper,L2,Bot,Signal*
%FSLAX46Y46*%
G04 Gerber Fmt 4.6, Leading zero omitted, Abs format (unit mm)*
G04 Created by KiCad (PCBNEW 4.0.4+dfsg1-stable) date Wed Nov  9 14:37:23 2016*
%MOMM*%
%LPD*%
G01*
G04 APERTURE LIST*
%ADD10C,0.100000*%
%ADD11C,1.800000*%
%ADD12C,5.500000*%
%ADD13R,3.200000X3.000000*%
%ADD14C,3.200000*%
%ADD15C,2.000000*%
%ADD16C,2.500000*%
%ADD17O,1.524000X1.524000*%
%ADD18R,2.000000X2.000000*%
%ADD19C,1.800000*%
%ADD20C,0.800000*%
%ADD21C,5.000000*%
G04 APERTURE END LIST*
D10*
D11*
X88996000Y-136144000D03*
X100996000Y-136144000D03*
X117664000Y-124206000D03*
X105664000Y-124206000D03*
D12*
X120142000Y-128270000D03*
X89916000Y-120396000D03*
X79248000Y-120396000D03*
D13*
X110490000Y-63246000D03*
D14*
X100490000Y-63246000D03*
D12*
X81026000Y-107696000D03*
X97536000Y-111760000D03*
X114046000Y-107696000D03*
X97536000Y-103632000D03*
X120904000Y-70358000D03*
X120904000Y-84074000D03*
X104648000Y-80264000D03*
X96520000Y-80264000D03*
X104648000Y-88392000D03*
X96520000Y-88392000D03*
D11*
X96408000Y-93472000D03*
X82408000Y-93472000D03*
X96408000Y-75184000D03*
X82408000Y-75184000D03*
D15*
X117664000Y-134112000D03*
X105664000Y-139112000D03*
X105664000Y-129112000D03*
D12*
X79362000Y-128778000D03*
D16*
X102362000Y-128778000D03*
D12*
X79362000Y-143510000D03*
D16*
X102362000Y-143510000D03*
D17*
X92964000Y-97536000D03*
X90424000Y-97536000D03*
X87884000Y-97536000D03*
D18*
X92964000Y-111760000D03*
D15*
X85344000Y-111760000D03*
D18*
X93008000Y-103632000D03*
D15*
X85388000Y-103632000D03*
D18*
X100330000Y-120396000D03*
D15*
X107950000Y-120396000D03*
D18*
X109728000Y-111760000D03*
D15*
X102108000Y-111760000D03*
D18*
X109728000Y-103632000D03*
D15*
X102108000Y-103632000D03*
D18*
X91948000Y-80264000D03*
D15*
X84328000Y-80264000D03*
D18*
X91948000Y-88392000D03*
D15*
X84328000Y-88392000D03*
D18*
X116840000Y-80264000D03*
D15*
X109220000Y-80264000D03*
D18*
X116840000Y-88392000D03*
D15*
X109220000Y-88392000D03*
D12*
X108000000Y-143510000D03*
D19*
X85471000Y-128778000D02*
X88996000Y-132303000D01*
X88996000Y-132303000D02*
X88996000Y-136144000D01*
X79362000Y-128778000D02*
X85471000Y-128778000D01*
X85471000Y-143510000D02*
X88996000Y-139985000D01*
X88996000Y-139985000D02*
X88996000Y-136144000D01*
X79362000Y-143510000D02*
X85471000Y-143510000D01*
X79248000Y-120396000D02*
X79248000Y-128664000D01*
X79248000Y-128664000D02*
X79362000Y-128778000D01*
X79248000Y-120396000D02*
X79248000Y-109474000D01*
X79248000Y-109474000D02*
X81026000Y-107696000D01*
X85344000Y-111760000D02*
X85090000Y-111760000D01*
X85090000Y-111760000D02*
X81026000Y-107696000D01*
X85388000Y-103632000D02*
X85090000Y-103632000D01*
X85090000Y-103632000D02*
X81026000Y-107696000D01*
X85388000Y-103632000D02*
X85388000Y-100032000D01*
X85388000Y-100032000D02*
X87884000Y-97536000D01*
D20*
X105664000Y-124206000D02*
X105664000Y-122682000D01*
X105664000Y-122682000D02*
X107950000Y-120396000D01*
X105664000Y-128778000D02*
X105664000Y-124206000D01*
X102362000Y-128778000D02*
X105664000Y-128778000D01*
X120472200Y-104724200D02*
X113284000Y-97536000D01*
X113284000Y-97536000D02*
X92964000Y-97536000D01*
X120472200Y-121397800D02*
X120472200Y-104724200D01*
X117664000Y-124206000D02*
X120472200Y-121397800D01*
X117664000Y-124206000D02*
X117664000Y-125792000D01*
X117664000Y-125792000D02*
X120142000Y-128270000D01*
X117664000Y-133778000D02*
X117664000Y-130748000D01*
X117664000Y-130748000D02*
X120142000Y-128270000D01*
X113538000Y-143510000D02*
X117664000Y-139384000D01*
X117664000Y-139384000D02*
X117664000Y-133778000D01*
X108000000Y-143510000D02*
X113538000Y-143510000D01*
X102362000Y-143510000D02*
X108000000Y-143510000D01*
X116840000Y-88392000D02*
X116840000Y-86893400D01*
X116840000Y-86893400D02*
X119659400Y-84074000D01*
X119659400Y-84074000D02*
X120904000Y-84074000D01*
X120904000Y-84074000D02*
X119151400Y-84074000D01*
X119151400Y-84074000D02*
X116840000Y-81762600D01*
X116840000Y-81762600D02*
X116840000Y-80264000D01*
X110490000Y-71120000D02*
X116840000Y-77470000D01*
X116840000Y-77470000D02*
X116840000Y-80264000D01*
X110490000Y-63246000D02*
X110490000Y-71120000D01*
X120904000Y-65074800D02*
X120904000Y-70358000D01*
X115265200Y-59436000D02*
X120904000Y-65074800D01*
X104292400Y-59436000D02*
X115265200Y-59436000D01*
X103809800Y-59918600D02*
X104292400Y-59436000D01*
X103809800Y-59926200D02*
X103809800Y-59918600D01*
X100490000Y-63246000D02*
X103809800Y-59926200D01*
X100490000Y-63246000D02*
X98890001Y-64845999D01*
X98890001Y-64845999D02*
X98882401Y-64845999D01*
X98882401Y-64845999D02*
X84328000Y-79400400D01*
X84328000Y-79400400D02*
X84328000Y-80264000D01*
X84328000Y-88392000D02*
X84328000Y-86977787D01*
X84328000Y-86977787D02*
X84328000Y-80264000D01*
X89916000Y-120396000D02*
X100330000Y-120396000D01*
X82408000Y-93472000D02*
X79756000Y-90820000D01*
X79756000Y-90820000D02*
X79756000Y-77836000D01*
X79756000Y-77836000D02*
X82408000Y-75184000D01*
X82408000Y-93472000D02*
X88392000Y-93472000D01*
X88392000Y-93472000D02*
X90424000Y-95504000D01*
X90424000Y-95504000D02*
X90424000Y-97536000D01*
X100996000Y-136144000D02*
X103030000Y-136144000D01*
X103030000Y-136144000D02*
X105664000Y-138778000D01*
X96408000Y-75184000D02*
X96408000Y-80152000D01*
X96408000Y-80152000D02*
X96520000Y-80264000D01*
D21*
X104648000Y-80264000D02*
X109220000Y-80264000D01*
X96520000Y-80264000D02*
X104648000Y-80264000D01*
X91948000Y-80264000D02*
X96520000Y-80264000D01*
D20*
X96408000Y-93472000D02*
X96408000Y-88504000D01*
X96408000Y-88504000D02*
X96520000Y-88392000D01*
D21*
X104648000Y-88392000D02*
X109220000Y-88392000D01*
X96520000Y-88392000D02*
X104648000Y-88392000D01*
X91948000Y-88392000D02*
X96520000Y-88392000D01*
D20*
X97536000Y-111760000D02*
X102108000Y-111760000D01*
X92964000Y-111760000D02*
X97536000Y-111760000D01*
X97536000Y-103632000D02*
X102108000Y-103632000D01*
X93008000Y-103632000D02*
X97536000Y-103632000D01*
X111252000Y-108712000D02*
X112268000Y-107696000D01*
X109728000Y-110236000D02*
X111252000Y-108712000D01*
X109728000Y-111760000D02*
X109728000Y-110236000D01*
X109728000Y-105156000D02*
X109728000Y-103632000D01*
X112268000Y-107696000D02*
X109728000Y-105156000D01*
X114046000Y-107696000D02*
X112268000Y-107696000D01*
M02*
