M48
;DRILL file {KiCad 4.0.2+dfsg1-stable} date jeu. 08 sept. 2016 23:26:43 CEST
;FORMAT={-:-/ absolute / metric / decimal}
FMAT,2
METRIC,TZ
T1C0.800
T2C1.000
T3C1.016
T4C2.000
T5C2.800
%
G90
G05
M71
T1
X79.362Y-128.778
X79.362Y-143.51
X82.408Y-75.184
X82.408Y-93.472
X84.328Y-80.264
X84.328Y-88.392
X85.028Y-136.144
X85.344Y-111.76
X85.388Y-103.632
X91.948Y-80.264
X91.948Y-88.392
X92.964Y-111.76
X93.008Y-103.632
X96.408Y-75.184
X96.408Y-93.472
X97.028Y-136.144
X100.33Y-120.396
X102.108Y-103.632
X102.108Y-111.76
X102.362Y-128.778
X102.362Y-143.51
X105.664Y-124.206
X107.95Y-120.396
X108.Y-143.51
X109.22Y-80.264
X109.22Y-88.392
X109.728Y-103.632
X109.728Y-111.76
X116.84Y-80.264
X116.84Y-88.392
X117.664Y-124.206
T2
X105.664Y-128.778
X105.664Y-138.778
X117.664Y-133.778
T3
X87.884Y-97.536
X90.424Y-97.536
X92.964Y-97.536
T4
X100.49Y-63.246
X110.49Y-63.246
T5
X79.248Y-120.396
X81.026Y-107.696
X89.916Y-120.396
X96.52Y-80.264
X96.52Y-88.392
X97.536Y-103.632
X97.536Y-111.76
X104.648Y-80.264
X104.648Y-88.392
X114.046Y-107.696
X120.142Y-128.27
X120.904Y-70.358
X120.904Y-84.074
T0
M30
